<svg width="1024" height="1024" viewBox="0 0 1024 1024" fill="none" xmlns="http://www.w3.org/2000/svg">
<rect width="1024" height="1024" rx="129.347" fill="#1C1C1C"/>
<path d="M593.632 142C606.838 142 617.544 152.717 617.544 165.936V198.095L781.081 199.456L406.677 638.398C326.866 621.997 266.841 551.303 266.839 466.558V419.527C266.839 301.611 358.44 205.253 474.074 197.54V165.936C474.074 152.717 484.779 142 497.985 142C511.191 142 521.897 152.717 521.897 165.936V197.306L569.721 197.701V165.936C569.721 152.717 580.426 142 593.632 142Z" fill="#94DD78"/>
<path d="M619.209 382.845C710.194 389.313 781.999 465.11 782 557.691V604.686C781.999 722.513 690.321 818.79 574.592 826.497V858.082C574.592 871.291 563.878 882 550.66 882C537.443 882 526.729 871.291 526.729 858.082V826.736L478.865 826.341V858.082C478.865 871.291 468.151 882 454.934 882C441.717 882 431.002 871.291 431.002 858.082V825.941L242 824.379L619.209 382.845Z" fill="#94DD78"/>
</svg>
