<svg width="190" height="190" viewBox="0 0 190 190" fill="none" xmlns="http://www.w3.org/2000/svg">
<rect width="190" height="190" rx="24" fill="#4A4AF2"/>
<path d="M72.4225 121.398C73.0014 124.64 74.275 127.476 76.2433 129.908C78.2115 132.339 80.7587 134.249 83.8847 135.639C87.1266 136.912 90.8894 137.549 95.1732 137.549C101.888 137.549 106.925 136.044 110.282 133.034C113.64 129.908 115.319 126.145 115.319 121.745C115.319 118.272 114.277 115.377 112.193 113.062C110.109 110.746 107.156 108.778 103.336 107.157C99.6308 105.536 95.289 103.973 90.3105 102.468C85.6793 101.078 81.106 99.5733 76.5906 97.9524C72.0752 96.3314 67.965 94.3053 64.2601 91.8739C60.5551 89.4426 57.6028 86.3165 55.4029 82.4958C53.3189 78.5593 52.2769 73.6386 52.2769 67.7339C52.2769 60.324 54.0715 54.014 57.6606 48.8039C61.3656 43.5938 66.402 39.6573 72.7699 36.9944C79.1378 34.3315 86.4898 33 94.8259 33C101.888 33 108.256 34.042 113.93 36.1261C119.603 38.0943 124.35 41.0467 128.17 44.9832C132.107 48.8039 135.001 53.5509 136.854 59.2241L115.145 65.1288C114.566 62.5817 113.293 60.3819 111.324 58.5294C109.356 56.6769 106.983 55.2297 104.204 54.1877C101.425 53.0299 98.4151 52.451 95.1732 52.451C91.6999 52.3352 88.5159 52.8562 85.6214 54.014C82.7269 55.1718 80.4113 56.8506 78.6746 59.0504C76.9379 61.2502 76.0696 63.7974 76.0696 66.6919C76.0696 69.9337 77.0537 72.5387 79.022 74.507C80.9902 76.3595 83.5953 77.9804 86.8371 79.3697C90.0789 80.6433 93.726 81.9169 97.7783 83.1905C102.641 84.5798 107.504 86.2007 112.367 88.0532C117.229 89.7899 121.687 92.0476 125.739 94.8263C129.791 97.4892 133.033 100.905 135.465 105.073C138.012 109.241 139.285 114.509 139.285 120.877C139.285 127.592 137.664 133.67 134.423 139.112C131.296 144.554 126.55 148.895 120.182 152.137C113.814 155.379 105.825 157 96.2153 157C88.3422 157 81.1639 155.842 74.6802 153.527C68.3124 151.211 63.0444 147.853 58.8763 143.454C54.7083 138.938 51.9874 133.612 50.7139 127.476L72.4225 121.398Z" fill="white"/>
</svg>
