<svg width="6131" height="1040" viewBox="0 0 6131 1040" fill="none" xmlns="http://www.w3.org/2000/svg">
<g clip-path="url(#clip0_441_1018)">
<path d="M179.837 620.858C83.7982 614.021 8.00511 533.902 8.00386 436.042L8.00387 386.366C8.00531 261.821 104.775 160.054 226.933 151.907L226.933 93.1524C226.933 79.1894 241.479 65.9989 255.431 65.9989C269.382 65.9989 285.899 79.1894 285.899 93.1524L285.899 151.655L319.533 152.072L319.533 93.1524C319.533 79.1894 336.05 65.9989 350.002 65.9989C363.953 65.9989 378.499 79.1894 378.499 93.1524L378.499 152.494L578 154.146L179.837 620.858Z" fill="#4FCF7D"/>
<path d="M406.163 419.822C502.202 426.658 577.995 506.778 577.996 604.638V654.314C577.995 778.859 481.225 880.626 359.067 888.773V947.527C359.067 961.49 344.521 974.681 330.569 974.681C316.618 974.681 300.101 961.49 300.101 947.527V889.025L266.467 888.608V947.527C266.467 961.49 249.95 974.681 235.998 974.681C222.047 974.681 207.501 961.49 207.501 947.527V888.186L8 886.534L406.163 419.822Z" fill="#4FCF7D"/>
</g>
<path d="M6122.68 772.036H5809.62V267.965H6122.68V349.333H5866.85L5897.88 321.061V478.971H6099.23V556.892H5897.88V718.94L5866.85 690.668H6122.68V772.036Z" fill="#1C1C1C"/>
<path d="M5499.46 780.31C5450.27 780.31 5407.52 769.737 5371.2 748.59C5335.35 726.984 5307.3 696.873 5287.08 658.257C5267.31 619.182 5257.43 573.211 5257.43 520.345C5257.43 467.938 5267.54 422.197 5287.77 383.121C5308.45 344.046 5337.42 313.705 5374.65 292.099C5411.89 270.493 5454.87 259.689 5503.6 259.689C5543.59 259.689 5579.45 267.045 5611.17 281.756C5642.89 296.466 5669.1 317.153 5689.78 343.816C5710.47 370.02 5723.57 401.28 5729.09 437.597H5636C5627.26 408.176 5610.94 385.42 5587.04 369.33C5563.59 352.781 5534.86 344.506 5500.84 344.506C5470.5 344.506 5443.84 351.631 5420.85 365.882C5398.33 380.133 5380.86 400.36 5368.45 426.564C5356.03 452.767 5349.83 484.028 5349.83 520.345C5349.83 555.283 5356.03 586.083 5368.45 612.746C5380.86 638.95 5398.33 659.407 5420.85 674.117C5443.84 688.368 5470.5 695.494 5500.84 695.494C5535.32 695.494 5564.74 687.219 5589.11 670.67C5613.93 654.12 5630.48 631.824 5638.75 603.782H5730.47C5724.03 638.72 5710.01 669.52 5688.4 696.183C5667.26 722.847 5640.36 743.533 5607.72 758.244C5575.54 772.955 5539.46 780.31 5499.46 780.31Z" fill="#1C1C1C"/>
<path d="M4850.71 772.036H4763.82V267.965H4851.4L5113.43 664.464H5087.92V267.965H5174.8V772.036H5087.92L4825.2 376.226H4850.71V772.036Z" fill="#1C1C1C"/>
<path d="M4337.22 772.036H4246.2L4428.24 267.965H4518.57L4700.62 772.036H4607.53L4566.84 655.5H4378.59L4337.22 772.036ZM4462.03 418.29L4404.11 581.027H4541.33L4483.41 418.29C4481.57 411.394 4479.5 404.498 4477.2 397.603C4474.9 390.707 4473.52 384.731 4473.06 379.674C4472.14 384.271 4470.53 390.247 4468.23 397.603C4466.4 404.498 4464.33 411.394 4462.03 418.29Z" fill="#1C1C1C"/>
<path d="M3858.79 772.036H3771.9V267.965H3859.48L4121.51 664.464H4096V267.965H4182.88V772.036H4096L3833.27 376.226H3858.79V772.036Z" fill="#1C1C1C"/>
<path d="M3660.17 267.965V772.036H3571.9V267.965H3660.17Z" fill="#1C1C1C"/>
<path d="M3268.92 267.965V772.036H3180.66V267.965H3268.92ZM3492.34 349.333H3187.55V267.965H3492.34V349.333ZM3456.48 565.856H3186.17V486.557H3456.48V565.856Z" fill="#1C1C1C"/>
<path d="M2899.78 772.036H2586.71V267.965H2899.78V349.333H2643.95L2674.98 321.061V478.971H2876.33V556.892H2674.98V718.94L2643.95 690.668H2899.78V772.036Z" fill="#1C1C1C"/>
<path d="M2213.03 772.036H2124.76V267.965H2317.15C2374.15 267.965 2418.52 281.756 2450.24 309.339C2482.42 336.921 2498.51 375.537 2498.51 425.185C2498.51 458.744 2490.69 487.476 2475.06 511.381C2459.89 534.826 2437.36 552.755 2407.48 565.167L2503.33 772.036H2406.79L2321.29 583.785H2213.03V772.036ZM2213.03 346.575V505.864H2317.15C2345.19 505.864 2367.03 498.739 2382.66 484.488C2398.29 470.237 2406.1 450.469 2406.1 425.185C2406.1 399.901 2398.29 380.594 2382.66 367.262C2367.03 353.471 2345.19 346.575 2317.15 346.575H2213.03Z" fill="#1C1C1C"/>
<path d="M1698.16 772.036H1607.13L1789.18 267.965H1879.51L2061.56 772.036H1968.46L1927.78 655.5H1739.53L1698.16 772.036ZM1822.97 418.29L1765.04 581.027H1902.27L1844.34 418.29C1842.5 411.394 1840.44 404.498 1838.14 397.603C1835.84 390.707 1834.46 384.731 1834 379.674C1833.08 384.271 1831.47 390.247 1829.17 397.603C1827.33 404.498 1825.26 411.394 1822.97 418.29Z" fill="#1C1C1C"/>
<path d="M1330.2 267.965V772.036H1241.93V267.965H1330.2ZM1441.22 598.266H1308.82V519.656H1422.6C1452.94 519.656 1475.93 512.07 1491.56 496.9C1507.65 481.27 1515.69 459.664 1515.69 432.081C1515.69 404.498 1507.65 383.352 1491.56 368.641C1475.93 353.93 1453.4 346.575 1423.98 346.575H1300.55V267.965H1441.22C1475.24 267.965 1504.66 274.86 1529.48 288.652C1554.31 302.443 1573.61 321.751 1587.41 346.575C1601.2 370.94 1608.09 399.672 1608.09 432.771C1608.09 464.95 1601.2 493.682 1587.41 518.966C1573.61 543.79 1554.31 563.328 1529.48 577.579C1504.66 591.37 1475.24 598.266 1441.22 598.266Z" fill="#1C1C1C"/>
<path d="M804.896 408.635C804.896 379.214 812.481 353.24 827.651 330.715C842.822 308.189 863.738 290.72 890.402 278.308C917.524 265.436 948.785 259 984.182 259C1018.2 259 1047.62 264.976 1072.45 276.929C1097.73 288.881 1117.27 305.89 1131.06 327.956C1145.31 350.022 1152.9 376.226 1153.81 406.567H1065.55C1064.63 384.96 1056.82 368.181 1042.11 356.228C1027.39 343.816 1007.63 337.61 982.803 337.61C955.68 337.61 933.844 343.816 917.295 356.228C901.205 368.181 893.16 384.73 893.16 405.877C893.16 423.806 897.987 438.057 907.641 448.63C917.754 458.744 933.384 466.329 954.531 471.386L1033.83 489.314C1077.04 498.508 1109.22 514.368 1130.37 536.894C1151.52 558.96 1162.09 588.841 1162.09 626.538C1162.09 657.338 1154.5 684.461 1139.33 707.906C1124.16 731.351 1102.56 749.51 1074.52 762.382C1046.93 774.794 1014.52 781 977.287 781C941.889 781 910.859 775.024 884.195 763.071C857.532 750.659 836.616 733.42 821.445 711.354C806.734 689.288 798.919 663.314 798 633.433H886.264C886.724 654.58 894.999 671.359 911.088 683.771C927.638 695.724 949.934 701.7 977.976 701.7C1007.4 701.7 1030.61 695.724 1047.62 683.771C1065.09 671.359 1073.83 655.04 1073.83 634.812C1073.83 617.343 1069.23 603.552 1060.03 593.438C1050.84 582.865 1035.9 575.51 1015.21 571.372L935.223 553.444C892.47 544.25 860.061 527.7 837.995 503.795C815.929 479.431 804.896 447.711 804.896 408.635Z" fill="#1C1C1C"/>
<defs>
<clipPath id="clip0_441_1018">
<rect x="8" y="8" width="570" height="1024" rx="239.999" fill="white"/>
</clipPath>
</defs>
</svg>
