<svg width="988" height="184" viewBox="0 0 988 184" fill="none" xmlns="http://www.w3.org/2000/svg">
<path d="M802.158 30.5883H711.158V75.9609H779.217V103.745H711.158V151.412H802.158V180.216H676.746V1.78436H802.158V30.5883Z" fill="white"/>
<path d="M611.682 56.8432C611.682 48.8563 609.218 42.4837 604.29 37.7256C599.532 32.9674 592.055 30.5883 581.859 30.5883H543.879V83.353H581.859C588.656 83.353 594.264 82.3334 598.682 80.2942C603.101 78.085 606.33 75.0262 608.369 71.1177C610.578 67.0393 611.682 62.2811 611.682 56.8432ZM582.879 1.78436C597.323 1.78436 609.218 4.33338 618.565 9.43143C628.081 14.3595 635.133 21.072 639.722 29.5687C644.48 37.8955 646.859 46.987 646.859 56.8432C646.859 63.4707 645.669 70.0981 643.29 76.7256C640.911 83.1831 637.173 89.1308 632.075 94.5687C626.977 99.8367 620.349 104.085 612.192 107.314C604.205 110.543 594.434 112.157 582.879 112.157H543.879V180.216H509.467V1.78436H582.879ZM602.251 100.686L650.428 180.216H611.937L565.8 100.686H602.251Z" fill="white"/>
<path d="M402.598 30.5883H393.422L340.912 180.216H305.48L369.461 1.78436H426.304L490.284 180.216H454.853L402.598 30.5883ZM344.226 110.373H448.226V139.177H344.226V110.373Z" fill="white"/>
<path d="M230.125 83.353C236.922 83.353 242.53 82.3334 246.948 80.2942C251.366 78.085 254.595 75.0262 256.634 71.1177C258.844 67.0393 259.948 62.2811 259.948 56.8432C259.948 48.5164 257.484 42.0589 252.556 37.4707C247.798 32.8824 240.321 30.5883 230.125 30.5883H192.144V83.353H230.125ZM295.125 56.8432C295.125 63.4707 293.935 70.0981 291.556 76.7256C289.177 83.1831 285.438 89.1308 280.34 94.5687C275.242 99.8367 268.615 104.085 260.458 107.314C252.471 110.543 242.7 112.157 231.144 112.157H192.144V180.216H157.732V1.78436H231.144C245.589 1.78436 257.484 4.33338 266.83 9.43143C276.347 14.3595 283.399 21.072 287.987 29.5687C292.746 37.8955 295.125 46.987 295.125 56.8432Z" fill="white"/>
<path d="M31.8628 129.745C32.7124 134.503 34.5817 138.667 37.4706 142.235C40.3595 145.804 44.0981 148.608 48.6863 150.647C53.4445 152.516 58.9674 153.451 65.2549 153.451C75.1111 153.451 82.5033 151.242 87.4314 146.824C92.3595 142.235 94.8236 136.712 94.8236 130.255C94.8236 125.157 93.2941 120.909 90.2353 117.51C87.1765 114.111 82.8432 111.222 77.2353 108.843C71.7974 106.464 65.4249 104.17 58.1177 101.961C51.3203 99.9216 44.6079 97.7124 37.9804 95.3334C31.353 92.9543 25.3203 89.9804 19.8824 86.4118C14.4445 82.8432 10.1111 78.2549 6.88236 72.6471C3.82353 66.8693 2.29412 59.6471 2.29412 50.9804C2.29412 40.1046 4.92811 30.8431 10.1961 23.1961C15.634 15.549 23.0262 9.77125 32.3726 5.86275C41.719 1.95425 52.5098 0 64.7451 0C75.1111 0 84.4575 1.52941 92.7843 4.58824C101.111 7.47712 108.078 11.8105 113.686 17.5882C119.464 23.1961 123.712 30.1634 126.431 38.4902L94.5687 47.1569C93.719 43.4183 91.8497 40.1896 88.9608 37.4706C86.0719 34.7516 82.5883 32.6275 78.5098 31.098C74.4314 29.3987 70.0131 28.549 65.2549 28.549C60.1569 28.3791 55.4837 29.1438 51.2353 30.8431C46.987 32.5425 43.5882 35.0065 41.0392 38.2353C38.4902 41.4641 37.2157 45.2026 37.2157 49.451C37.2157 54.2092 38.6601 58.0327 41.549 60.9216C44.4379 63.6405 48.2615 66.0196 53.0196 68.0588C57.7778 69.9281 63.1307 71.7974 69.0784 73.6667C76.2157 75.7059 83.353 78.085 90.4902 80.8039C97.6275 83.353 104.17 86.6667 110.118 90.7451C116.065 94.6536 120.824 99.6667 124.392 105.784C128.131 111.902 130 119.634 130 128.98C130 138.837 127.621 147.758 122.863 155.745C118.275 163.732 111.307 170.105 101.961 174.863C92.6144 179.621 80.8889 182 66.7843 182C55.2288 182 44.6928 180.301 35.1765 176.902C25.8301 173.503 18.098 168.575 11.9804 162.118C5.86275 155.49 1.86928 147.673 0 138.667L31.8628 129.745Z" fill="white"/>
<path d="M898.894 183.047V133.309H930.077V139.769H906.398V154.924H928.45V161.36H906.398V176.587H930.369V183.047H898.894Z" fill="white" fill-opacity="0.5"/>
<path d="M889.914 149.484H882.337C882.045 147.865 881.503 146.44 880.709 145.209C879.916 143.979 878.945 142.935 877.795 142.076C876.645 141.218 875.358 140.571 873.933 140.134C872.525 139.696 871.027 139.478 869.44 139.478C866.575 139.478 864.008 140.198 861.742 141.639C859.491 143.08 857.71 145.193 856.399 147.978C855.104 150.763 854.456 154.163 854.456 158.178C854.456 162.226 855.104 165.642 856.399 168.427C857.71 171.212 859.499 173.317 861.766 174.741C864.033 176.166 866.583 176.879 869.416 176.879C870.987 176.879 872.476 176.668 873.885 176.247C875.31 175.81 876.597 175.171 877.746 174.329C878.896 173.487 879.867 172.459 880.661 171.244C881.47 170.014 882.029 168.605 882.337 167.018L889.914 167.043C889.509 169.488 888.724 171.738 887.558 173.794C886.408 175.834 884.927 177.599 883.114 179.089C881.316 180.562 879.26 181.704 876.945 182.513C874.63 183.323 872.104 183.727 869.368 183.727C865.061 183.727 861.224 182.707 857.856 180.667C854.488 178.611 851.833 175.672 849.89 171.851C847.963 168.03 847 163.473 847 158.178C847 152.868 847.971 148.31 849.914 144.505C851.857 140.684 854.513 137.753 857.88 135.713C861.248 133.657 865.077 132.629 869.368 132.629C872.007 132.629 874.468 133.01 876.751 133.771C879.05 134.515 881.114 135.616 882.944 137.073C884.773 138.514 886.287 140.279 887.485 142.368C888.683 144.44 889.493 146.812 889.914 149.484Z" fill="white" fill-opacity="0.5"/>
<path d="M987.726 67.6545V117.393H980.829L955.547 80.9148H955.086V117.393H947.581V67.6545H954.527L979.833 104.181H980.295V67.6545H987.726Z" fill="white" fill-opacity="0.5"/>
<path d="M903.897 117.393H895.931L913.83 67.6545H922.5L940.399 117.393H932.433L918.371 76.689H917.983L903.897 117.393ZM905.232 97.9152H931.073V104.23H905.232V97.9152Z" fill="white" fill-opacity="0.5"/>
<path d="M888.748 67.6545V117.393H881.85L856.568 80.9148H856.107V117.393H848.603V67.6545H855.548L880.855 104.181H881.316V67.6545H888.748Z" fill="white" fill-opacity="0.5"/>
<path d="M896.179 2.00006V51.7383H888.675V2.00006H896.179Z" fill="white" fill-opacity="0.5"/>
<path d="M848.603 51.7383V2.00006H879.446V8.46021H856.107V23.6148H877.236V30.0507H856.107V51.7383H848.603Z" fill="white" fill-opacity="0.5"/>
</svg>
